<svg width="70" height="34" viewBox="0 0 70 34" fill="none" xmlns="http://www.w3.org/2000/svg">
<path fill-rule="evenodd" clip-rule="evenodd" d="M1.88424 15.9998C0.140961 15.9998 1.35767 17.9555 1.88424 18.5356L15.9868 33.5102C16.5134 34.0903 17.3671 34.0903 17.8937 33.5102C18.4202 32.9302 18.4202 31.9897 17.8937 31.4096L6.09288 18.9706H68.6516C69.3963 18.9706 70 18.3056 70 17.4852C70 16.6649 69.3963 15.9998 68.6516 15.9998H6.09288C6.09288 15.9998 2.16349 15.9998 1.88424 15.9998Z" fill="white"/>
<path fill-rule="evenodd" clip-rule="evenodd" d="M1.88424 17.9451C0.140961 17.945 1.35767 15.9893 1.88424 15.4093L15.9868 0.434584C16.5134 -0.145498 17.3671 -0.145498 17.8937 0.434584C18.4202 1.01467 18.4202 1.95516 17.8937 2.53524L6.09288 14.9742H68.6516C69.3963 14.9742 70 15.6392 70 16.4596C70 17.2799 69.3963 17.945 68.6516 17.945H6.09288C6.09288 17.945 2.16349 17.9451 1.88424 17.9451Z" fill="white"/>
</svg>
