<svg width="70" height="34" viewBox="0 0 70 34" fill="none" xmlns="http://www.w3.org/2000/svg">
<path fill-rule="evenodd" clip-rule="evenodd" d="M68.1158 16C69.859 16 68.6423 17.9557 68.1158 18.5358L54.0132 33.5105C53.4866 34.0906 52.6329 34.0906 52.1063 33.5105C51.5798 32.9304 51.5798 31.9899 52.1063 31.4098L63.9071 18.9709H1.34835C0.603678 18.9709 0 18.3058 0 17.4855C0 16.6651 0.603678 16.0001 1.34835 16.0001H63.9071C63.9071 16.0001 67.8365 16 68.1158 16Z" fill="white"/>
<path fill-rule="evenodd" clip-rule="evenodd" d="M68.1158 17.9453C69.859 17.9453 68.6423 15.9896 68.1158 15.4095L54.0132 0.434828C53.4866 -0.145254 52.6329 -0.145254 52.1063 0.434828C51.5798 1.01491 51.5798 1.9554 52.1063 2.53549L63.9071 14.9744H1.34835C0.603678 14.9744 0 15.6395 0 16.4598C0 17.2802 0.603678 17.9452 1.34835 17.9452H63.9071C63.9071 17.9452 67.8365 17.9453 68.1158 17.9453Z" fill="white"/>
</svg>
